{"accessors" : [{"bufferView" : 0, "byteOffset" : 0, "componentType" : 5123, "count" : 33648, "type" : "SCALAR", "max" : [33647], "min" : [0]}, {"bufferView" : 1, "byteOffset" : 0, "componentType" : 5126, "count" : 33648, "type" : "VEC3", "max" : [139.91000366210938, 62, 184.3719940185547], "min" : [-140, -61, 7], "name" : "POSITION"}, {"bufferView" : 1, "byteOffset" : 12, "componentType" : 5126, "count" : 33648, "type" : "VEC3", "max" : [1, 1, 1], "min" : [0.16862745583057404, 0.11372549086809158, 0.1725490242242813], "name" : "COLOR_0"}], "asset" : {"generator" : "Aspose.3D 24.9.1", "version" : "2.0"}, "buffers" : [{"uri" : "data:application/octet-stream;base64,", "byteLength" : 874856}], "bufferViews" : [{"buffer" : 0, "byteOffset" : 0, "byteLength" : 67296, "target" : 34963}, {"buffer" : 0, "byteOffset" : 67300, "byteLength" : 807552, "byteStride" : 24, "target" : 34962}], "materials" : [{"name" : "lambert2SG.001", "pbrMetallicRoughness" : {"baseColorFactor" : [1, 1, 1, 1], "metallicFactor" : 0.5, "roughnessFactor" : 0.5}, "emissiveFactor" : [0, 0, 0], "alphaMode" : "OPAQUE", "doubleSided" : false}], "meshes" : [{"primitives" : [{"attributes" : {"POSITION" : 1, "COLOR_0" : 2}, "indices" : 0, "material" : 0, "mode" : 4}]}], "nodes" : [{"mesh" : 0, "name" : "Mesh_Mesh_head_geo.001_lambert2SG.001"}, {"children" : [0], "matrix" : [1, 0, 0, 0, 0, 2.220446049250313E-16, -1, 0, 0, 1, 2.220446049250313E-16, 0, 0, 0, 0, 1], "name" : "Node #1"}], "scene" : 0, "scenes" : [{"nodes" : [1]}]}